<svg xmlns="http://www.w3.org/2000/svg" viewBox="0 0 720 430" width="720" height="430" font-family="PingFang SC,Hiragino Sans GB,Microsoft YaHei,Segoe UI,sans-serif"><defs></defs><rect x="0" y="0" width="720" height="430" fill="#ffffff"/><line x1="100" y1="70" x2="100" y2="345" stroke="#34495e" stroke-width="1.6" stroke-linecap="round" opacity="1"/><line x1="100" y1="345" x2="655" y2="345" stroke="#34495e" stroke-width="1.6" stroke-linecap="round" opacity="1"/><line x1="100.0" y1="345" x2="100.0" y2="351" stroke="#34495e" stroke-width="1.2" stroke-linecap="butt" opacity="1"/><line x1="169.375" y1="345" x2="169.375" y2="351" stroke="#34495e" stroke-width="1.2" stroke-linecap="butt" opacity="1"/><text x="169.375" y="367" font-size="11.5" text-anchor="middle" fill="#2c3e50" font-weight="normal" opacity="1">1</text><line x1="238.75" y1="345" x2="238.75" y2="351" stroke="#34495e" stroke-width="1.2" stroke-linecap="butt" opacity="1"/><text x="238.75" y="367" font-size="11.5" text-anchor="middle" fill="#2c3e50" font-weight="normal" opacity="1">2</text><line x1="308.125" y1="345" x2="308.125" y2="351" stroke="#34495e" stroke-width="1.2" stroke-linecap="butt" opacity="1"/><text x="308.125" y="367" font-size="11.5" text-anchor="middle" fill="#2c3e50" font-weight="normal" opacity="1">3</text><line x1="377.5" y1="345" x2="377.5" y2="351" stroke="#34495e" stroke-width="1.2" stroke-linecap="butt" opacity="1"/><text x="377.5" y="367" font-size="11.5" text-anchor="middle" fill="#2c3e50" font-weight="normal" opacity="1">4</text><line x1="446.875" y1="345" x2="446.875" y2="351" stroke="#34495e" stroke-width="1.2" stroke-linecap="butt" opacity="1"/><text x="446.875" y="367" font-size="11.5" text-anchor="middle" fill="#2c3e50" font-weight="normal" opacity="1">5</text><line x1="516.25" y1="345" x2="516.25" y2="351" stroke="#34495e" stroke-width="1.2" stroke-linecap="butt" opacity="1"/><text x="516.25" y="367" font-size="11.5" text-anchor="middle" fill="#2c3e50" font-weight="normal" opacity="1">6</text><line x1="585.625" y1="345" x2="585.625" y2="351" stroke="#34495e" stroke-width="1.2" stroke-linecap="butt" opacity="1"/><text x="585.625" y="367" font-size="11.5" text-anchor="middle" fill="#2c3e50" font-weight="normal" opacity="1">7</text><line x1="655.0" y1="345" x2="655.0" y2="351" stroke="#34495e" stroke-width="1.2" stroke-linecap="butt" opacity="1"/><text x="655.0" y="367" font-size="11.5" text-anchor="middle" fill="#2c3e50" font-weight="normal" opacity="1">8</text><text x="0" y="367" font-size="11.5" text-anchor="middle" fill="#2c3e50" font-weight="normal" opacity="1">0</text><line x1="94" y1="345.0" x2="100" y2="345.0" stroke="#34495e" stroke-width="1.2" stroke-linecap="butt" opacity="1"/><text x="87" y="349.0" font-size="11.5" text-anchor="end" fill="#2c3e50" font-weight="normal" opacity="1">0</text><line x1="94" y1="290.0" x2="100" y2="290.0" stroke="#34495e" stroke-width="1.2" stroke-linecap="butt" opacity="1"/><text x="87" y="294.0" font-size="11.5" text-anchor="end" fill="#2c3e50" font-weight="normal" opacity="1">1</text><line x1="94" y1="235.0" x2="100" y2="235.0" stroke="#34495e" stroke-width="1.2" stroke-linecap="butt" opacity="1"/><text x="87" y="239.0" font-size="11.5" text-anchor="end" fill="#2c3e50" font-weight="normal" opacity="1">2</text><line x1="94" y1="180.0" x2="100" y2="180.0" stroke="#34495e" stroke-width="1.2" stroke-linecap="butt" opacity="1"/><text x="87" y="184.0" font-size="11.5" text-anchor="end" fill="#2c3e50" font-weight="normal" opacity="1">3</text><line x1="94" y1="125.0" x2="100" y2="125.0" stroke="#34495e" stroke-width="1.2" stroke-linecap="butt" opacity="1"/><text x="87" y="129.0" font-size="11.5" text-anchor="end" fill="#2c3e50" font-weight="normal" opacity="1">4</text><line x1="94" y1="70.0" x2="100" y2="70.0" stroke="#34495e" stroke-width="1.2" stroke-linecap="butt" opacity="1"/><text x="87" y="74.0" font-size="11.5" text-anchor="end" fill="#2c3e50" font-weight="normal" opacity="1">5</text><text x="377.5" y="389" font-size="13" text-anchor="middle" fill="#2c3e50" font-weight="600" opacity="1">月</text><text x="56" y="237.5" font-size="13" text-anchor="middle" fill="#2c3e50" font-weight="600" opacity="1">人数</text><rect x="100.0" y="174.0" width="277.5" height="12" rx="0" fill="#ffffff" stroke="#34495e" stroke-width="1.6" opacity="1"/><line x1="169.375" y1="174.0" x2="169.375" y2="186.0" stroke="#34495e" stroke-width="1.6" stroke-linecap="butt" opacity="1"/><text x="134.6875" y="206.0" font-size="12.5" text-anchor="middle" fill="#2c3e50" font-weight="700" opacity="1">A</text><line x1="238.75" y1="174.0" x2="238.75" y2="186.0" stroke="#34495e" stroke-width="1.6" stroke-linecap="butt" opacity="1"/><text x="204.0625" y="206.0" font-size="12.5" text-anchor="middle" fill="#2c3e50" font-weight="700" opacity="1">B</text><line x1="308.125" y1="174.0" x2="308.125" y2="186.0" stroke="#34495e" stroke-width="1.6" stroke-linecap="butt" opacity="1"/><text x="273.4375" y="206.0" font-size="12.5" text-anchor="middle" fill="#2c3e50" font-weight="700" opacity="1">C</text><line x1="377.5" y1="174.0" x2="377.5" y2="186.0" stroke="#34495e" stroke-width="1.6" stroke-linecap="butt" opacity="1"/><text x="342.8125" y="206.0" font-size="12.5" text-anchor="middle" fill="#2c3e50" font-weight="700" opacity="1">D</text><text x="393.5" y="184.0" font-size="12.5" text-anchor="start" fill="#2c3e50" font-weight="normal" opacity="1">计划（Scheduled）</text><rect x="392" y="236" width="252" height="52.0" rx="7" fill="#f2f5f8" stroke="#dde5ed" stroke-width="1" opacity="1"/><text x="402" y="257.0" font-size="11" text-anchor="start" fill="#2c3e50" font-weight="normal" opacity="1">12 人月的任务，派 3 人做 4 个月</text><text x="402" y="273.5" font-size="11" text-anchor="start" fill="#2c3e50" font-weight="normal" opacity="1">里程碑 A、B、C、D 各在月末达成</text></svg>